<mxfile host="app.diagrams.net" modified="2023-12-20T11:28:38.599Z" agent="Mozilla/5.0 (Windows NT 10.0; Win64; x64) AppleWebKit/537.36 (KHTML, like Gecko) Chrome/120.0.0.0 Safari/537.36 Edg/120.0.0.0" etag="DoYrzkTWC6SHKYURrPs0" version="22.1.11" type="github">
  <diagram id="R2lEEEUBdFMjLlhIrx00" name="Page-1">
    <mxGraphModel dx="914" dy="374" grid="1" gridSize="10" guides="1" tooltips="1" connect="1" arrows="1" fold="1" page="1" pageScale="1" pageWidth="850" pageHeight="1100" math="0" shadow="0" extFonts="Permanent Marker^https://fonts.googleapis.com/css?family=Permanent+Marker">
      <root>
        <mxCell id="0" />
        <mxCell id="1" parent="0" />
        <mxCell id="qWtolJTuulnWUpJ36A6X-15" value="Package" style="swimlane;childLayout=stackLayout;horizontal=1;startSize=50;horizontalStack=0;rounded=1;fontSize=14;fontStyle=0;strokeWidth=2;resizeParent=0;resizeLast=1;shadow=0;dashed=0;align=center;arcSize=4;whiteSpace=wrap;html=1;" vertex="1" parent="1">
          <mxGeometry x="340" y="310" width="160" height="160" as="geometry" />
        </mxCell>
        <mxCell id="qWtolJTuulnWUpJ36A6X-16" value="id&lt;br&gt;title&lt;br style=&quot;border-color: var(--border-color);&quot;&gt;location&lt;br style=&quot;border-color: var(--border-color);&quot;&gt;itinerary filefield&lt;br&gt;destinations&lt;br&gt;activities&lt;br&gt;components" style="align=left;strokeColor=none;fillColor=none;spacingLeft=4;fontSize=12;verticalAlign=top;resizable=0;rotatable=0;part=1;html=1;" vertex="1" parent="qWtolJTuulnWUpJ36A6X-15">
          <mxGeometry y="50" width="160" height="110" as="geometry" />
        </mxCell>
        <mxCell id="qWtolJTuulnWUpJ36A6X-17" value="" style="edgeStyle=entityRelationEdgeStyle;fontSize=12;html=1;endArrow=ERoneToMany;rounded=0;entryX=0;entryY=0.25;entryDx=0;entryDy=0;exitX=1;exitY=0.25;exitDx=0;exitDy=0;" edge="1" parent="1" source="qWtolJTuulnWUpJ36A6X-16" target="qWtolJTuulnWUpJ36A6X-19">
          <mxGeometry width="100" height="100" relative="1" as="geometry">
            <mxPoint x="500" y="415" as="sourcePoint" />
            <mxPoint x="560" y="385" as="targetPoint" />
          </mxGeometry>
        </mxCell>
        <mxCell id="qWtolJTuulnWUpJ36A6X-18" value="Component" style="swimlane;childLayout=stackLayout;horizontal=1;startSize=50;horizontalStack=0;rounded=1;fontSize=14;fontStyle=0;strokeWidth=2;resizeParent=0;resizeLast=1;shadow=0;dashed=0;align=center;arcSize=4;whiteSpace=wrap;html=1;" vertex="1" parent="1">
          <mxGeometry x="640" y="390" width="160" height="170" as="geometry" />
        </mxCell>
        <mxCell id="qWtolJTuulnWUpJ36A6X-19" value="id&lt;br&gt;name&lt;br&gt;description&lt;br&gt;type (choiceField)&lt;br&gt;is_included (Boolean)&lt;br&gt;is_optional (Boolean)&lt;br&gt;price (nullable)" style="align=left;strokeColor=none;fillColor=none;spacingLeft=4;fontSize=12;verticalAlign=top;resizable=0;rotatable=0;part=1;html=1;" vertex="1" parent="qWtolJTuulnWUpJ36A6X-18">
          <mxGeometry y="50" width="160" height="120" as="geometry" />
        </mxCell>
        <mxCell id="qWtolJTuulnWUpJ36A6X-20" value="Destination" style="swimlane;childLayout=stackLayout;horizontal=1;startSize=50;horizontalStack=0;rounded=1;fontSize=14;fontStyle=0;strokeWidth=2;resizeParent=0;resizeLast=1;shadow=0;dashed=0;align=center;arcSize=4;whiteSpace=wrap;html=1;" vertex="1" parent="1">
          <mxGeometry x="640" y="240" width="160" height="110" as="geometry" />
        </mxCell>
        <mxCell id="qWtolJTuulnWUpJ36A6X-21" value="id&lt;br&gt;name&lt;br&gt;description" style="align=left;strokeColor=none;fillColor=none;spacingLeft=4;fontSize=12;verticalAlign=top;resizable=0;rotatable=0;part=1;html=1;" vertex="1" parent="qWtolJTuulnWUpJ36A6X-20">
          <mxGeometry y="50" width="160" height="60" as="geometry" />
        </mxCell>
        <mxCell id="qWtolJTuulnWUpJ36A6X-22" style="edgeStyle=orthogonalEdgeStyle;rounded=0;orthogonalLoop=1;jettySize=auto;html=1;exitX=0.5;exitY=1;exitDx=0;exitDy=0;" edge="1" parent="qWtolJTuulnWUpJ36A6X-20" source="qWtolJTuulnWUpJ36A6X-21" target="qWtolJTuulnWUpJ36A6X-21">
          <mxGeometry relative="1" as="geometry" />
        </mxCell>
        <mxCell id="qWtolJTuulnWUpJ36A6X-23" style="edgeStyle=orthogonalEdgeStyle;rounded=0;orthogonalLoop=1;jettySize=auto;html=1;exitX=0.5;exitY=1;exitDx=0;exitDy=0;" edge="1" parent="qWtolJTuulnWUpJ36A6X-20" source="qWtolJTuulnWUpJ36A6X-21" target="qWtolJTuulnWUpJ36A6X-21">
          <mxGeometry relative="1" as="geometry" />
        </mxCell>
        <mxCell id="qWtolJTuulnWUpJ36A6X-24" value="Activity" style="swimlane;childLayout=stackLayout;horizontal=1;startSize=50;horizontalStack=0;rounded=1;fontSize=14;fontStyle=0;strokeWidth=2;resizeParent=0;resizeLast=1;shadow=0;dashed=0;align=center;arcSize=4;whiteSpace=wrap;html=1;" vertex="1" parent="1">
          <mxGeometry x="640" y="600" width="160" height="110" as="geometry" />
        </mxCell>
        <mxCell id="qWtolJTuulnWUpJ36A6X-25" value="id&lt;br&gt;name&lt;br&gt;description&lt;br&gt;" style="align=left;strokeColor=none;fillColor=none;spacingLeft=4;fontSize=12;verticalAlign=top;resizable=0;rotatable=0;part=1;html=1;" vertex="1" parent="qWtolJTuulnWUpJ36A6X-24">
          <mxGeometry y="50" width="160" height="60" as="geometry" />
        </mxCell>
        <mxCell id="qWtolJTuulnWUpJ36A6X-26" value="" style="edgeStyle=entityRelationEdgeStyle;fontSize=12;html=1;endArrow=ERmany;startArrow=ERmany;rounded=0;entryX=0;entryY=0.5;entryDx=0;entryDy=0;exitX=1;exitY=0.5;exitDx=0;exitDy=0;" edge="1" parent="1" source="qWtolJTuulnWUpJ36A6X-16" target="qWtolJTuulnWUpJ36A6X-25">
          <mxGeometry width="100" height="100" relative="1" as="geometry">
            <mxPoint x="500" y="443" as="sourcePoint" />
            <mxPoint x="360" y="405" as="targetPoint" />
            <Array as="points">
              <mxPoint x="350" y="530" />
              <mxPoint x="310" y="581.25" />
            </Array>
          </mxGeometry>
        </mxCell>
        <mxCell id="qWtolJTuulnWUpJ36A6X-27" value="PackageType" style="swimlane;childLayout=stackLayout;horizontal=1;startSize=50;horizontalStack=0;rounded=1;fontSize=14;fontStyle=0;strokeWidth=2;resizeParent=0;resizeLast=1;shadow=0;dashed=0;align=center;arcSize=4;whiteSpace=wrap;html=1;" vertex="1" parent="1">
          <mxGeometry x="640" y="120" width="200" height="90" as="geometry" />
        </mxCell>
        <mxCell id="qWtolJTuulnWUpJ36A6X-28" value="id&lt;br&gt;name" style="align=left;strokeColor=none;fillColor=none;spacingLeft=4;fontSize=12;verticalAlign=top;resizable=0;rotatable=0;part=1;html=1;" vertex="1" parent="qWtolJTuulnWUpJ36A6X-27">
          <mxGeometry y="50" width="200" height="40" as="geometry" />
        </mxCell>
        <mxCell id="qWtolJTuulnWUpJ36A6X-29" value="" style="edgeStyle=entityRelationEdgeStyle;fontSize=12;html=1;endArrow=ERoneToMany;rounded=0;exitX=0;exitY=0.25;exitDx=0;exitDy=0;entryX=1.008;entryY=0.185;entryDx=0;entryDy=0;entryPerimeter=0;" edge="1" parent="1" source="qWtolJTuulnWUpJ36A6X-27" target="qWtolJTuulnWUpJ36A6X-15">
          <mxGeometry width="100" height="100" relative="1" as="geometry">
            <mxPoint x="370" y="210" as="sourcePoint" />
            <mxPoint x="390" y="352.5" as="targetPoint" />
          </mxGeometry>
        </mxCell>
        <mxCell id="qWtolJTuulnWUpJ36A6X-30" value="" style="edgeStyle=entityRelationEdgeStyle;fontSize=12;html=1;endArrow=ERoneToMany;rounded=0;exitX=1.005;exitY=0.083;exitDx=0;exitDy=0;entryX=0;entryY=0;entryDx=0;entryDy=0;exitPerimeter=0;" edge="1" parent="1" source="qWtolJTuulnWUpJ36A6X-16" target="qWtolJTuulnWUpJ36A6X-21">
          <mxGeometry width="100" height="100" relative="1" as="geometry">
            <mxPoint x="400" y="210" as="sourcePoint" />
            <mxPoint x="500" y="110" as="targetPoint" />
          </mxGeometry>
        </mxCell>
      </root>
    </mxGraphModel>
  </diagram>
</mxfile>
